
<global>
amp_veltrack=0
ampeg_release=0.35
xfin_hicc1=24
xfout_hicc1=127
xfout_locc1=127
</global>

<group>
group_label=PP
lpc_hicc1=42
lpc_locc1=0

<region>
hikey=g#5
hivel=127
lokey=g5
lovel=1
lpc=NCmaQC975MDglNFABHGJwMktb0Ak0L2/vqoVP2PCpD6/JA8+r8aSPsYBlz8rK3q/GwcdPleLOz9LeH4/zx+Ovmk2sr4JluA+cplvP1T2CD78SQG/xQ+7P0T0r7+GdOc/
lpc_rms=-38.04
offset=790
pitch_keycenter=g#5
sample=Viola_marcato_PP_G#5.opus
</region>

<region>
hikey=g#4
hivel=127
lokey=g4
lovel=1
lpc=CwgcQanEssGbA7RBcTtvwdzJI0HGT9zAoy6oQObOqcBAkz5A2WnTv4laKEBOlivAW//TP1LR+L/JEvg/NZq8vwIdoT9J1fq+XTunPJY8Cb8TvKM/kfZFvrmdML9yVD8/
lpc_rms=-37.42
offset=1160
pitch_keycenter=g#4
sample=Viola_marcato_PP_G#4.opus
</region>

<region>
hikey=g#3
hivel=127
lokey=g3
lovel=1
lpc=66SKQVJ1MMKiKyxCTbCgwf2O+0DiBrjAOEIxQEjNrL9rx14/bzjPvpsBmL47pV1A2h/cwEk6VkDiha9AmBILwWAqyEDTCZfANfyOQI3fP8AH8wxAxt8BwC1vvj9/f+i+
lpc_rms=-34.23
offset=603
pitch_keycenter=g#3
sample=Viola_marcato_PP_G#3.opus
</region>

<region>
hikey=f#5
hivel=127
lokey=f5
lovel=1
lpc=JDcbQTCDiMFc6WhB9qcfwdTN5kCgjyXA2EAVQHOtOMAaLh1AjuK8v5hgFEAu+Um/DNwev8adGb0Y+hdAL+K5v34tID8jli4/MQfvvH08qLzEEjm/Hq4sQOpHUsCO8jxA
lpc_rms=-30.25
offset=1380
pitch_keycenter=f#5
sample=Viola_marcato_PP_F#5.opus
</region>

<region>
hikey=f#4
hivel=127
lokey=f4
lovel=1
lpc=9MZpQYFUGcKhmClCoF0CwuNH00Fqd5fBY9tRQSP4RcHivupA09Ocv/Nrhj+Pnam/0UXuvfwXpL/MCq9Ahu3vwF+xykAACY3AQlVXQFwEacCr+WhA3r3wv7rUCD/v0wK+
lpc_rms=-32.22
offset=1134
pitch_keycenter=f#4
sample=Viola_marcato_PP_F#4.opus
</region>

<region>
hikey=f#3
hivel=127
lokey=f3
lovel=1
lpc=gHnYQcPDmMIMx6dC2ik3wlu5gEHudPDA9gmIQEoLUMDwVY1A8BhgwFIxiL+3/O9A2kkrwdVhr0CrzatAoJ4owZHd10C7QW+/sWobwMPLiUCYYI3A09CKQKdNkMCRigdA
lpc_rms=-33.26
offset=1400
pitch_keycenter=f#3
sample=Viola_marcato_PP_F#3.opus
</region>

<region>
hikey=e5
hivel=127
lokey=d#5
lovel=1
lpc=JO2fQPa4GsE2tA5BB5+lwLAKJUCshk+/g+2GP0gsxr6ndkS/FIKZPzgejb9PJLE/R79vvm7GM7+nFu8/VzYbwCILzj+w+mi/RMNOP6dQ3r7Rl288OpXsPgZlFL+dxXo+
lpc_rms=-32.97
offset=1039
pitch_keycenter=e5
sample=Viola_marcato_PP_E5.opus
</region>

<region>
hikey=e4
hivel=127
lokey=d#4
lovel=1
lpc=TtuzQSRwe8IVL5FCHq9HwtGW60GB0XLB4MTTQLuv6sDlIbxAaNfcv1zaGr9wMVJAdXl4wAEclj/c935AQsUAwWKt5EB2AqTARA5vQOGASMBlGJ5Am9x5wMqeQ7/ExeM/
lpc_rms=-29.28
offset=903
pitch_keycenter=e4
sample=Viola_marcato_PP_E4.opus
</region>

<region>
hikey=e3
hivel=127
lokey=d#3
lovel=1
lpc=S1QUQjFa0cKxY+NCvAtowiasgEFAQ4zAsSWOv0dPHL8birRADC22wP61MkCM/4xAEtlWwdlKDkEnY/9AEoR0wQpEFEG/ZLC/W4SGwGbiyUDfsHzAAMX+P4LltL+Btyo/
lpc_rms=-30.91
offset=1006
pitch_keycenter=e3
sample=Viola_marcato_PP_E3.opus
</region>

<region>
hikey=d5
hivel=127
lokey=c#5
lovel=1
lpc=6/SCQJGQ5cD4mMBA3gB+wGHgHUC3maC/aCZwP3l3E78FP/6+i1mEPwtwS7/Q6YI/AlfvvjBXH71Ykhg/HRFsv914aD/7mQG/LRJKPlWbuD31PZe+i14JP+3uT7/OfFM/
lpc_rms=-37.70
offset=1000
pitch_keycenter=d5
sample=Viola_marcato_PP_D5.opus
</region>

<region>
hikey=d4
hivel=127
lokey=c#4
lovel=1
lpc=6qKMQb/MP8IfI1hChVMMwu0WlkEx1CPByoaLQLrl/r85xi0/TlhwPwzncr+FXrI+APVzv0G2+74OnaJAR1gLwahbBEGpN8bAlwSyQH3pocDV3xVAM40yviXVhj9p8Eq/
lpc_rms=-33.80
offset=687
pitch_keycenter=d4
sample=Viola_marcato_PP_D4.opus
</region>

<region>
hikey=d3
hivel=127
lokey=c#3
lovel=1
lpc=4tL3QZGftcKcV9FCOblkwtwibkFu3l7AeU8Vv2ok7z+myy5AkGqCwLWHvj9rpXxA1mIhwb0Uu0BjjuRAxf5FwYrl4EDQpPc/zrT4wMl380CftaTAR1OVQJwOisCqJtA/
lpc_rms=-32.85
offset=1526
pitch_keycenter=d3
sample=Viola_marcato_PP_D3.opus
</region>

<region>
hikey=C#6
hivel=127
lokey=b5
lovel=1
lpc=x60MQZl45MAvn75AJ3KYwH2Mh0DXQ1LA4mYiQCk++7+g+fA/0iHav5zhgj+xH5G+J77fPdF1Gz6dFs2+WFaeP+dDrr8N58Y/D44HwA6CPEBTPF/AHh2JQBzdtsChpry/
lpc_rms=-39.19
offset=2210
pitch_keycenter=C6
sample=Viola_marcato_PP_C6.opus
</region>

<region>
hikey=c5
hivel=127
lokey=b4
lovel=1
lpc=IajCQAhuPMH6YRtBc2e4wDUfqkCbHYrAmr9xQPUnZ8BZePA/YSZ2vxFGkj9saRS/IjaFvuBpR74Eh5s/uNYpv3BWkr7jCBe/fzG3P/AOQr45TA6/hpDRP0jvCcDST7E/
lpc_rms=-35.68
offset=535
pitch_keycenter=c5
sample=Viola_marcato_PP_C5.opus
</region>

<region>
hikey=c4
hivel=127
lokey=b3
lovel=1
lpc=kPsCQh55qsLUqatCA8Etwr9Vk0GtKizBJ1u7P+Um5z7z0b8/T50FP6QijMAvpRpBduJkwcZ4nUDRfUhByHSNwWNuNUFwubLAWnNXQHM+tL8bwfG+ElxDQMsqgsAxVgdA
lpc_rms=-29.00
offset=1108
pitch_keycenter=c4
sample=Viola_marcato_PP_C4.opus
</region>

<region>
hivel=127
key=c3
lovel=1
lpc=klvzQeK6tMJ4utdCRF98wo8BjkG8tJLAheUVQM1ObD8t+8W/b4nGP73hXcCh2gFBVzJTwRNkD0GGujpAAPD+wH5cTkA/3INANPvQwE8VfED8HUTA4lCvQNPrwMC2CCtA
lpc_rms=-34.21
offset=269
sample=Viola_marcato_PP_C3.opus
</region>

<region>
hikey=a#5
hivel=127
lokey=a5
lovel=1
lpc=/dcDQeJKK8HoJhxBQxzAwJ66oUDnduG/D6U0QORTA8BCcU5AM5IxwCJNh0AmZbu/44u8P+ejiL8RVBtA3yG4PqqkJT6VZdc+YeSCP1JvOb/wCmZA+ngrwGSrZUDlENS/
lpc_rms=-32.55
offset=1553
pitch_keycenter=a#5
sample=Viola_marcato_PP_A#5.opus
</region>

<region>
hikey=a#4
hivel=127
lokey=a4
lovel=1
lpc=LFYeQZY4u8FQUb5BZ9FpwUlbFkEgC93AIqSLQKxm/L/8llO/RHtJQAC+hMC53EVA/1elvukWpb4Hp9I9xV1jv6CFSr9uI0BA9E/hvwwDvT7C0t2/2kSKQDNTlsBevSBA
lpc_rms=-32.58
offset=1533
pitch_keycenter=a#4
sample=Viola_marcato_PP_A#4.opus
</region>

<region>
hikey=a#3
hivel=127
lokey=a3
lovel=1
lpc=j/akQUK6XsKKs2dC6RX3waW3d0EwmDTB0wapQA2GaMCv/GVAnm5av99+rb+p3ZFAiPbhwM/7EUBIK7dAkRQawa8kEkE4+97ADxSqQBykicBTy0lAK0YPwN+spz+tmS2+
lpc_rms=-31.02
offset=1185
pitch_keycenter=a#3
sample=Viola_marcato_PP_A#3.opus
</region>
</group>

<group>
group_label=MF
lpc_hicc1=84
lpc_locc1=43

<region>
hikey=g#5
hivel=127
lokey=g5
lovel=1
lpc=OUqOQPFe0cBQVMdAOguIwGcgf0AIevK//pGAP1tRBL6v5sQ+OanbPsotUz85Ona/8WVnPzdXL74jYaE/H3bavk6Zsj0ZaJE+6emwPiMCfj/pfXS/nYi4P8eCtL8TPPQ/
lpc_rms=-36.24
pitch_keycenter=g#5
sample=Viola_marcato_MF_G#5.opus
</region>

<region>
hikey=g#4
hivel=127
lokey=g4
lovel=1
lpc=9ZXsQFu/e8EA1WtBghkYwctw3UAlVo/Ay1MrQLEYOMCUPUBA32NTwORIikAv+ZfA/GM6QKVdC8CAghVA4FKkvw0Yvj5i+tW+/4SaP54nur9oMAA/N6WVPzaFxL/H+IM/
lpc_rms=-32.41
pitch_keycenter=g#4
sample=Viola_marcato_MF_G#4.opus
</region>

<region>
hikey=g#3
hivel=127
lokey=g3
lovel=1
lpc=C7tgQS1dDcIz3xFCjDejwdlMCUGqzGzAVhxBvrrf/T+ZTQHA0X3nP76PIMBdfkRAG171v1krtr//E5tAWRmrwNmYnkCi14zALWRhQJQvHcAptOw/C8rNvmUMAL8W4Uo+
lpc_rms=-30.40
pitch_keycenter=g#3
sample=Viola_marcato_MF_G#3.opus
</region>

<region>
hikey=f#5
hivel=127
lokey=f5
lovel=1
lpc=vJ8DQYcEcsHsxlZBKQcSwULZ4kD2JmnAs/lLQK9ePMCxTOw/v6Gtv2JCCkC28nm/4KaJP/wHU7+bHUo/buwMvzYvNT+blIQ+XtgSPkYvZD9xd7K/y7MSQGrWTsAxNjtA
lpc_rms=-27.53
pitch_keycenter=f#5
sample=Viola_marcato_MF_F#5.opus
</region>

<region>
hikey=f#4
hivel=127
lokey=f4
lovel=1
lpc=v1cgQXIWxcEJ3tJBl1WiwamahUGJ+ErB/ucCQdjSusAsZExAV6Qnv3sMjT8BnADAZw1aPzOaOL/C6hNAlScEwNpP+z0iLZY/dstTv8jToT6GzGi/zjOVP4b7aL6eGY+9
lpc_rms=-27.94
pitch_keycenter=f#4
sample=Viola_marcato_MF_F#4.opus
</region>

<region>
hikey=f#3
hivel=127
lokey=f3
lovel=1
lpc=H5XBQedYjsLPFqlCJBJMwhzPhUFf6HHAKfU8Pf7Zf786Qb9AcAuswPGyML8CptBAlIQTwWBRWkCVI+xAAvMfwYa/hEBOPoQ/K/FbwNEen0CpUHbAPV7ZP5pWu79A32c/
lpc_rms=-29.01
pitch_keycenter=f#3
sample=Viola_marcato_MF_F#3.opus
</region>

<region>
hikey=e5
hivel=127
lokey=d#5
lovel=1
lpc=HS6kQAr5IsE9VhZB5Gu8wPcUhEAWEP2/rWgbP+yErL66E0S+7nnBP9Aujb+abhk/d+XiPGBkkL840RtATqUCwFiBoD8vEYC/oSEpPzVCHL0QsLy+vceCP35snL8XCTs/
lpc_rms=-31.28
pitch_keycenter=e5
sample=Viola_marcato_MF_E5.opus
</region>

<region>
hikey=e4
hivel=127
lokey=d#4
lovel=1
lpc=ua8sQaamzsG6YcdBu2RiwZ2/EkFQKwHB7zPLQKgaccDmhQE/6RlMvxwIBUB85oW/Oo26PghD3z7UPiu/IBFjv7Hw6r3sFNI/41IGP1ShFsBlz/Q/dc+gvwOQ6j6uNp8+
lpc_rms=-27.82
pitch_keycenter=e4
sample=Viola_marcato_MF_E4.opus
</region>

<region>
hikey=e3
hivel=127
lokey=d#3
lovel=1
lpc=2djnQflnqsJb68VCaQJWwm70S0F4U5XAC8CIQLe5h8AsQcxAOMiIwHAYrb5DRcZAFSA3wUvjpkCuGBdBj7VKwT7jakBGM2tAsuPXwMig7UC7QLPApOxHQGc1ib/N7ZI+
lpc_rms=-26.58
pitch_keycenter=e3
sample=Viola_marcato_MF_E3.opus
</region>

<region>
hikey=d5
hivel=127
lokey=c#5
lovel=1
lpc=r0mPQJkfCMHUpABB/LXFwNZ3i0D2PhXAJO9rP5i4vD51HcK/e+DnP9vuq78+0sk/vhqyv9iKmj/+FRe/hMiUvXK95D7opx2/j2o1P9fhI74woka/vO6oPw9lpr8Ucm0/
lpc_rms=-33.01
pitch_keycenter=d5
sample=Viola_marcato_MF_D5.opus
</region>

<region>
hikey=d4
hivel=127
lokey=c#4
lovel=1
lpc=uUBDQZv++MGI5ABCJBKXwT8sJEGl+JzABpudv56Q2T+0Jfc/ZppvwJTbLkAbwn2/jLOQP1XFYsCF16pAo8avwJPEpUBFoprALF2DQMshWsC9AixAM1q8v8n/Vj0BIw0/
lpc_rms=-29.07
pitch_keycenter=d4
sample=Viola_marcato_MF_D4.opus
</region>

<region>
hikey=d3
hivel=127
lokey=c#3
lovel=1
lpc=CF7dQbBepMKKAsFCIZdTwt5AO0GIiy/ApDx9QGs8ncCWQ95Ayp6QwCNoHb/BFd9AOvA/wX2oo0BnDglB7pIhwfypoT8MS7tAqNX5wL8Et0DiGFTASV6CQE1ylcBuWfg/
lpc_rms=-28.36
pitch_keycenter=d3
sample=Viola_marcato_MF_D3.opus
</region>

<region>
hikey=C#6
hivel=127
lokey=b5
lovel=1
lpc=D93OQPO0sMATWJRAJA5bwJsXKkBT38e/CNhlP65Zmr4gX4Y+9SIUvhTa4j0OrUE+kPtkvoBxaD6j7QM+AMw4vehDpT05/5k+5jhZv5D7xz/qow3AFX5PQKVhlMCeYBK/
lpc_rms=-37.76
pitch_keycenter=C6
sample=Viola_marcato_MF_C6.opus
</region>

<region>
hikey=c5
hivel=127
lokey=b4
lovel=1
lpc=XfKjQKGBHsEv2xFBIqm3wEZ+U0DlbhC/+/CCv41zwT8XJ9a/dJE9P69Rkz06jF6/TD2QP6fBlb9E9Po/OsDrv5nbXD+VrS2/Yu9DP9yPFT9Jc0W/fohdP2XuhL82HkE/
lpc_rms=-31.56
pitch_keycenter=c5
sample=Viola_marcato_MF_C5.opus
</region>

<region>
hikey=c4
hivel=127
lokey=b3
lovel=1
lpc=gauqQdVfZcJ9m3xCvVAXwoQ4hkHXdN/AYPo/P/C/w79nP1tAun99v9E+N8Dr9bRA5sjnwCDF1T8S4xJBMXhMwc+5/UD8oIvATh6XQLg4ZcC7p7U/doKtvsmhqD7ecJa9
lpc_rms=-26.21
pitch_keycenter=c4
sample=Viola_marcato_MF_C4.opus
</region>

<region>
hivel=127
key=c3
lovel=1
lpc=0X7/QWp1vcJrpeJCPZKGwr87m0G09IbASa4sQFj7K8BrwZRAxZCIwD611b6L7A5BK7+LwXkXS0F7FotAMk5TwdJG8kDDlxRAL2TrwMcyC0EhPiDBT3AQQYwSm8BTk6Y/
lpc_rms=-28.18
sample=Viola_marcato_MF_C3.opus
</region>

<region>
hikey=a#5
hivel=127
lokey=a5
lovel=1
lpc=pEvPQFfsAsFVxPxAN6yxwNhGtUDuAD7AIuNoQJycDMB8AQtAu98Xv4pfA0BgoyK/dcmVP1Z5Dr5xE5Q/gAYRP6JVdT8qZ9S+1l5bP8ZOCT9EfIo/mv2APifFez8o1bK+
lpc_rms=-31.52
pitch_keycenter=a#5
sample=Viola_marcato_MF_A#5.opus
</region>

<region>
hikey=a#4
hivel=127
lokey=a4
lovel=1
lpc=hhPvQJzFisGBJIpBb2Yowd5590Dvpt3AoVONQJzrkr+6HsW/OOsjQIJtG8DinbM/5KXlu9trD7+l76k+5sDCvu3zer3Ls64/34GKvyUgMD+WQ9G/kHAhQK1dzL/LYwA/
lpc_rms=-32.36
pitch_keycenter=a#4
sample=Viola_marcato_MF_A#4.opus
</region>

<region>
hikey=a#3
hivel=127
lokey=a3
lovel=1
lpc=rHZzQc3SIsL9+S9CufXIwSIyKkGSscXAFuBUQLDLvb9ch1g/Hy9rPgjACMCWjoFAlOaVwIaQmj9rN6NARtYEwWPA5EAFEZnAARxGQJ2nOcB7C8k/p+O9P14BFcClN4E/
lpc_rms=-29.28
pitch_keycenter=a#3
sample=Viola_marcato_MF_A#3.opus
</region>
</group>

<group>
group_label=FF
lpc_hicc1=127
lpc_locc1=85

<region>
hikey=g#5
hivel=127
lokey=g5
lovel=1
lpc=3nSDQIW5u8DQoJ9AJVMUwMr+8D8NY1K/7zl5P2F85r6crfc+SS0lP0xEGz6jZwe+/4jCPUHqEz+wbgU/GDf0u80dZL4E5yQ/R5hovGEpeT/riD+/6hWLP2qRgb+faMo/
lpc_rms=-34.98
pitch_keycenter=g#5
sample=Viola_marcato_FF_G#5.opus
</region>

<region>
hikey=g#4
hivel=127
lokey=g4
lovel=1
lpc=T6XcQBezdcGiUoNBPkQ8wdhj9UB128TAaAa9QPwDlcD7OChA6s0kwMEORkApoybA/mUwPyPXED2RKpA/hGYTwDTGB0DT952/QvHBPzRctb9+LPg+4R4JPz9SML/2TB0/
lpc_rms=-29.48
pitch_keycenter=g#4
sample=Viola_marcato_FF_G#4.opus
</region>

<region>
hikey=g#3
hivel=127
lokey=g3
lovel=1
lpc=k4u9QeyTicIXMaVCT79SwoF3p0FN/AbB8q3lQNrcFsFZ/RpBHIyuwOCacD+2RVU9/L0mP2GTVsCqSxdBA/lVwSOqNEFLBazAYPlPv4rVhECF19K/PjQOwFPt2T95sUc+
lpc_rms=-25.09
pitch_keycenter=g#3
sample=Viola_marcato_FF_G#3.opus
</region>

<region>
hikey=f#5
hivel=127
lokey=f5
lovel=1
lpc=2Wn1QAr8XMEFT0pBagAVwVE3y0CLTua/hpTNP0Ffnb+cmAS/qM1qP9EUzj4gFxI+jI2sPhvA2jv2yGg9u2rgvegItb0+8o0/wgFuPhHC5z5snM6/WbYVQF6YKMCWDiFA
lpc_rms=-25.37
pitch_keycenter=f#5
sample=Viola_marcato_FF_F#5.opus
</region>

<region>
hikey=f#4
hivel=127
lokey=f4
lovel=1
lpc=zwclQXlo08E4tOZBT4imwf/5hUG9s2/BU1cyQUqZ3cABfEZAC9szv56lMT5nW1E/4UgTwNp93D/5D8U/ee9kwJTA/z+an+G9isk+Po9f1D15y86/iL8MQMnsg7/vC0E+
lpc_rms=-26.39
pitch_keycenter=f#4
sample=Viola_marcato_FF_F#4.opus
</region>

<region>
hikey=f#3
hivel=127
lokey=f3
lovel=1
lpc=d9iPQUWqRcJsMVpCliv3wSTLM0HLUqTAbRpSQI0JXcB7g2xAcNRzv1LK0r4pLpS/tUPhP/tme8DPrxdB3bE3wUJx9kCOg7K/ZP0xwA7LK0D5wY2/Lc8AQKstYMCsnvE/
lpc_rms=-27.97
pitch_keycenter=f#3
sample=Viola_marcato_FF_F#3.opus
</region>

<region>
hikey=e5
hivel=127
lokey=d#5
lovel=1
lpc=J2uRQFt5CcG9jwFBD0a1wLo+hUDBLwDAl2GpP5nzlb+x2CQ/W8WmPsCQZL+5PP0/PhzMvz/rKz+nC949xaMnvh+DNz1BVVY+hPQ5v3ivXD8FI8q+QrOXPrQfmL64NCI+
lpc_rms=-29.26
pitch_keycenter=e5
sample=Viola_marcato_FF_E5.opus
</region>

<region>
hikey=e4
hivel=127
lokey=d#4
lovel=1
lpc=CfInQfsX0MGFdtZBb8SFwYoHLUFd5QzBh+/WQBpGksB0ExZACiHzv3NeXj8yVgZAjdxLwKZTDEDs6SC/Qr8av0cZEb/vgwJA38ACwDf5DUD/tCHA+Jv+P4Q5pr8knUw/
lpc_rms=-25.57
pitch_keycenter=e4
sample=Viola_marcato_FF_E4.opus
</region>

<region>
hikey=e3
hivel=127
lokey=d#3
lovel=1
lpc=gc3EQXD0i8JWMZ9CjCszwpGSVkG1MJbAD4+4QBJw88Af4MdASLw5vv95ycATbcJAS3zMvyKzNMAjeRVBPShmweBRN0G950HAo6xgwMJBnUDTBArAR2/WvhV1Mz8x5jo9
lpc_rms=-24.09
pitch_keycenter=e3
sample=Viola_marcato_FF_E3.opus
</region>

<region>
hikey=d5
hivel=127
lokey=c#5
lovel=1
lpc=9W1yQOen3sB96spAMmKJwA1pKEBJYKm/gCDzPgscar1fBJG+cFxKP84jY7+Nc7k/KxzBv81MiT9MTDe+sQtxvdy3Tj4VPdK+ZMhQPlnqRD6j2tu+ResnP1xPZb9PjUY/
lpc_rms=-31.89
pitch_keycenter=d5
sample=Viola_marcato_FF_D5.opus
</region>

<region>
hikey=d4
hivel=127
lokey=c#4
lovel=1
lpc=U1s8QYbd8sEF7QBC6VyhwS8gQUHokvjAyElLQKCat7/CEBFAGh0owND6AT/Pw0dAPJh8wAeeu75g8Z9A+b+owMqPYEBj2UjAcMdMQFmlDMBQv08/M5SivrFR+D20TIQ+
lpc_rms=-26.41
pitch_keycenter=d4
sample=Viola_marcato_FF_D4.opus
</region>

<region>
hikey=d3
hivel=127
lokey=c#3
lovel=1
lpc=GeqYQZ3hWsKSk35CRT8Ywh6wY0FFdvXAIsnMQLp4jsA2ITRA7U+aP1s+w8A3gORAH8KwwCyY1T/oLq5ApF4XwdKP7UBZ/vO/b9YhwBduPkAM1Le/BBAcP+tBH783pr4+
lpc_rms=-25.39
pitch_keycenter=d3
sample=Viola_marcato_FF_D3.opus
</region>

<region>
hikey=C#6
hivel=127
lokey=b5
lovel=1
lpc=/HLyQPbJtsDj65dAgH5VwL8/NUDpn9m/Y4KVP7JROb5+Izk9liu7PpB9gr5SSYM+TGCEPrOiJb4MGPg+JP0wvtLkyz5QqFo9GuY1v7oF2D9qZQbAhaVIQCriisC/BMu/
lpc_rms=-33.05
pitch_keycenter=C6
sample=Viola_marcato_FF_C6.opus
</region>

<region>
hikey=c5
hivel=127
lokey=b4
lovel=1
lpc=pnaTQNfj9MBT+cBA2T99wICZT0Ajvui/ldSVP6AbZr8C0sY+LGcsvyDLTT/Q6Wa/Y6g9P7xYRr5XhZM+qW3TPXP5Mb9yYjc9WfIGvkBquj95jkK/R0IYP6iJZL+F9Fo/
lpc_rms=-28.93
pitch_keycenter=c5
sample=Viola_marcato_FF_C5.opus
</region>

<region>
hikey=c4
hivel=127
lokey=b3
lovel=1
lpc=S+JMQdPMAcLs/AlCg7yswY7FJEEaN5W/Y3uZwA+2V0BqlsC/I1r3Pzwx7L9LN5Y+psmRP2vuRcDaDrdASpzbwGfuoEBbpM2/wD1BPUMW0L4ojo4/1KGMv5FF5z4DSx8+
lpc_rms=-28.52
pitch_keycenter=c4
sample=Viola_marcato_FF_C4.opus
</region>

<region>
hivel=127
key=c3
lovel=1
lpc=Vc+vQewFe8Ka3pBCynorwunIiEHs0TPBDfIRQe9m6sDyW/VAwTt2wPRVlsBZvR5BzdgKwQpaNkDadnhALc6ywAc1AECFZ8k/R8cUwFWPLkDM1xrAuTeJPs4Chz/MkeC+
lpc_rms=-23.29
sample=Viola_marcato_FF_C3.opus
</region>

<region>
hikey=a#5
hivel=127
lokey=a5
lovel=1
lpc=yAgIQbHaGsFHk/FATHGtwNDzw0D7TBfAe/BpQNN3McDSPM4/S3i3PifK6T/dCmM/iwpUv4GV/TyN0uk/WlmIPw81MD++DFi+YGN9vs9ryj/OsH4/BK6XP+wfeT38nQ6/
lpc_rms=-28.60
pitch_keycenter=a#5
sample=Viola_marcato_FF_A#5.opus
</region>

<region>
hikey=a#4
hivel=127
lokey=a4
lovel=1
lpc=yPjtQOYvj8G0rZNBNxgrwdPnqEA2y2/AGu5WQESEFcB0u5Q+cBZ/P+SkUb9IWmg9tkrrPhAQgb98AQdACZMzwMvrCEBIm2e/MqjTPq5rNz/XWRLA2ntFQOwCD8CwOlc/
lpc_rms=-28.93
pitch_keycenter=a#4
sample=Viola_marcato_FF_A#4.opus
</region>

<region>
hikey=a#3
hivel=127
lokey=a3
lovel=1
lpc=s2d7QaHnK8J9V0RCkSj+wZFKZEHUhkPA+943wN6O0T9c2MA+508GP4RaVb9c1fW+Pm+FP00qYMAVGARBbJQXwS2tyEBPTU3A/xETQC1q47/Izh8/sOzTvvObaT+Lg7W+
lpc_rms=-26.65
pitch_keycenter=a#3
sample=Viola_marcato_FF_A#3.opus
</region>
</group>